<?xml version="1.0" encoding="utf-8"?>
<!-- Generator: Adobe Illustrator 21.1.0, SVG Export Plug-In . SVG Version: 6.00 Build 0)  -->
<svg version="1.1" id="Layer_1" xmlns="http://www.w3.org/2000/svg" xmlns:xlink="http://www.w3.org/1999/xlink" x="0px" y="0px"
	 viewBox="0 0 781 391" style="enable-background:new 0 0 781 391;" xml:space="preserve">
<style type="text/css">
	.st0{fill:none;stroke:#FFFFFF;stroke-width:2;stroke-miterlimit:10;}
</style>
<g id="XMLID_1_">
	<g>
	</g>
	<g>
		<path class="st0" d="M546.9,378.5c-6.7,0-13.6-1.6-21.4-5.1c-9.5-4.2-17.9-10.4-26-16.3c-1.5-1.1-3.1-2.3-4.6-3.4
			c-16.4-11.8-33.8-24.2-51.7-36.7c-7.5-5.2-14.7-9-22.1-11.4c-7.7-2.5-14.7-0.9-20.6,4.9c-7.2,6.9-11.5,15.9-13.1,27.5
			c-0.4,2.5-0.9,4.4-1.6,6.1c-0.4,1-1.9,2.1-3,2c-1.1-0.1-2.6-1.1-3.2-2.1c-0.7-1.2-0.7-2.9-0.7-4.2c0.2-9.7,2.5-19.2,6.8-29.1
			c0.3-0.6,0.6-1.3,0.9-2l0.4-0.9c-0.4,0-0.8-0.1-1.2-0.1c-1-0.1-1.9-0.2-2.8-0.2c-2.1,0.1-4.3,0.1-6.4,0.1
			c-5.9,0.1-11.9,0.2-17.8,0.7c-6.3,0.5-10.9-1.5-14.7-6.8c-10.2-14-20.8-28.1-31-41.8c-4.4-5.8-8.7-11.7-13.1-17.5
			c-8-10.7-16-21.5-24-32.2c-6.9-9.2-13.7-18.4-20.6-27.6c-0.1-0.1-0.2-0.3-0.3-0.4c-0.3-0.5-0.7-1-1.1-1.2l-0.4-0.2
			c-1.1-0.5-2.3-1.1-3.2-0.9c-0.5,0.1-0.9,1.1-1.3,2c-0.1,0.3-0.3,0.7-0.4,1c-0.1,0.2-0.1,0.5-0.1,0.8c0,0.1,0,0.2,0,0.3
			c0,7.1,0,14.1,0,21.2c0,20.7,0.1,42.2,0.3,63.3c0.1,4.6,1,9.3,1.9,13.9c0.1,0.7,0.3,1.4,0.4,2.1c1,4.9,4,8.7,8.6,10.7
			c4.9,2.2,10.2,3.8,15.4,5.4l0.1,0c3.9,1.2,5.4,2.9,5.2,5.7c-0.2,2.4-1.4,3.5-3.6,3.3c-1.4-0.1-2.8-0.2-4.2-0.4
			c-2.6-0.2-5.3-0.5-8-0.7c-31.4-2-55.7-2.6-78.6-1.9c-5.2,0.2-10.5,0.8-15.6,1.5l-1.8,0.2c-3.8,0.5-5.8-0.4-6.4-2.9
			c-0.8-3.3,0.5-5.3,4-6.5c0.7-0.2,1.4-0.4,2.1-0.6c0.4-0.1,0.9-0.2,1.3-0.4c6.7-2,9.4-5.7,9-12.1c-0.6-8.8-1.6-15.6-3.2-21.6
			c-3.5-13.3-7.4-26.8-11.2-39.8c-1.5-5.1-3-10.2-4.5-15.3c-0.2-0.6-0.4-1.1-0.6-1.6l-0.2-0.5c-2.4-6.5-3.1-7.4-10.3-7.4
			c-19-0.1-38.3-0.1-56.9,0l-6.8,0c-1.2,0-2.5,0.2-3.8,0.3c-0.6,0.1-1.1,0.1-1.7,0.2c-3.8,0.4-6.4,2.3-7.7,5.8
			c-0.8,2.1-1.5,4.1-2.3,6.2c-2.5,6.7-5.1,13.6-7.4,20.5c-4,11.8-7.7,23.6-11,34.9c-1.7,5.8-2,11.9-0.8,18c0.9,4.8,3.3,8.1,7.2,9.9
			c2.2,1,4.5,1.9,6.7,2.7c1.3,0.5,2.6,1,3.9,1.5c0.2,0.1,0.4,0.1,0.6,0.2c1,0.4,2,0.8,2.5,1.5c0.4,0.6,1.6,2.9,1.2,4.7
			c-0.3,1.1-2.3,2.4-3.6,2.4c-2.5,0.1-5-0.1-7.5-0.2c-1.3-0.1-2.7-0.2-4-0.2c-2.1-0.1-4.3-0.1-6.4-0.2c-8.7-0.3-17.7-0.6-26.5-0.7
			c-2.4,0-4.8,0.4-7.2,0.9c-0.6,0.1-1.2,0.2-1.8,0.3c-2.6,0.5-4.5-0.3-5.3-2.3c-1-2.4,0-5.3,2.1-6.4c0.8-0.4,1.6-0.8,2.6-1.1
			c4.8-1.2,7.6-4.6,9.8-7.7c6.6-9.7,10.5-20.1,14.9-32.8c13.4-38.8,27-78.2,40.3-116.3c5.1-14.6,10.1-29.2,15.2-43.8l10.8-31.2
			c5-14.5,10-28.9,15.1-43.4c0.1-0.3,0.2-0.5,0.3-0.8c0.3-0.9,0.6-1.9,1.2-2.7c0.7-0.9,1.6-1.8,2.5-2.5c0.4-0.3,0.7-0.7,1.1-1
			c0.1-0.1,0.1-0.1,0.2-0.1c0.1,0,0.1,0,0.2,0.1c0.3,0.4,0.7,0.7,1.1,1.1c0.9,0.8,1.7,1.6,2.3,2.6c0.7,1.4,1.2,2.9,1.6,4.4
			c0.1,0.4,0.2,0.9,0.4,1.3c11,36.6,22.1,73.2,33.1,109.7c3.6,11.8,7.1,23.7,10.7,35.5c7.5,25,15.2,50.8,23,76.2
			c3.5,11.6,7.5,22.9,11.6,34.5c1.4,3.9,3.4,8.2,8.1,11c0.2-0.4,0.4-0.7,0.6-1.1c0.5-1,0.9-1.9,1.1-2.8l0.5-2.6
			c1.1-6,2.2-12.1,3-18.3c0.5-4.5,0.5-9.1,0.5-13.6v-1.6c0-47.8,0.1-111,0-175.5c0-8-0.2-17.3-2.3-26.3c-2-8.3-6.9-13.3-14.9-15.4
			c-1.9-0.5-3.8-1-5.7-1.6l-1.3-0.4c-4.2-1.2-5.7-3-5.1-6c0.5-2.7,2.6-3.6,7-3.2c1.7,0.2,3.5,0.3,5.2,0.5c6.3,0.6,12.8,1.3,19.2,1.3
			c7.8,0.1,15.8-0.3,23.6-0.7c2.7-0.1,5.4-0.3,8.1-0.4c1.3,0,2.6-0.3,3.9-0.6c0.3-0.1,0.6-0.1,0.9-0.2c1.8-0.3,3.8-0.4,4.8,1.7
			c1.1,2.1,0.6,4.3-1.2,5.7c-1.1,0.9-2.4,1.6-3.6,2.3c-0.6,0.3-1.1,0.7-1.7,1c-6.4,4.1-9.9,9.3-10.7,15.8l-0.2,1.8
			c-0.4,3.3-0.8,6.8-0.9,10.2c-0.1,29.6-0.2,59.6-0.2,88.7l0,2.5c0,0.9,0.1,1.8,0.3,2.7c0.1,0.4,0.1,0.8,0.2,1.1l0.5,0.1
			c0.6-0.6,1.1-1.1,1.7-1.6c1.2-1.2,2.6-2.5,3.7-3.9c17.2-20,36.7-42.7,55.9-65.2c5.3-6.2,12.2-14.4,18.8-23
			c3.8-4.9,6.3-10.1,7.3-15.3c1.3-6.8-1.4-11.6-7.8-13.9c-0.8-0.3-1.6-0.5-2.4-0.7c-0.8-0.2-1.6-0.4-2.4-0.7
			c-0.2-0.1-0.5-0.2-0.7-0.2c-1.2-0.4-2.4-0.8-3.2-1.6c-0.9-1-1.8-2.8-1.5-4.1c0.2-1.2,1.7-2.9,3-3.1c1.7-0.3,3.5-0.1,5.3,0
			c0.8,0,1.6,0.1,2.4,0.1c3.5,0.1,7,0.1,10.5,0.2c12.4,0.2,25.3,0.5,38,0.6c1.6,0,3.2-0.3,4.8-0.6c1-0.2,2-0.4,3-0.5
			c1.4-0.2,2.6-0.1,3.5,0.2c1.4,0.5,2.5,1.6,2.8,3c0.3,1.4-0.2,2.8-1.3,3.8c-1.2,1-2.5,1.8-3.7,2.2c-7.3,2.3-13,7-18.3,11.7
			c-14,12.5-26.6,26.9-37.2,39.3c-13,15.2-26.2,30.8-38.9,45.8c-5.3,6.3-10.6,12.5-15.9,18.8c-0.2,0.3-0.5,0.6-0.7,0.9
			c-0.3,0.4-0.6,0.7-0.9,1.1c-2.8,3.2-3,6.7-0.5,10.2c2.7,4,5.7,8.2,9.7,13.6l13.9,18.9c20.1,27.4,40.9,55.6,61.4,83.4
			c7.5,10.2,16,16.8,25.9,20c4.5,1.5,7.3,1.5,9.9-2.6c1.2-1.9,3.1-3.4,5-5c0.8-0.6,1.6-1.3,2.4-1.9c-0.9-1-1.8-2-2.7-3
			c-2.2-2.4-4.4-4.9-6.6-7.5c-18.9-22.8-30.6-49.7-34.6-79.9c-4.2-31.6-2-62.1,6.6-90.6c6.4-21,15.8-38.3,28.7-53.1
			c19.6-22.3,45.5-33.3,76.8-32.7c17.9,0.3,34.2,4.8,48.3,13.3c13.4,8,25.4,19.9,35.5,35.3c11.5,17.5,18.9,37.4,22.5,60.7
			c3.7,24,3.7,47.6,0,70.2c-4.9,30.1-15.3,54.7-31.6,75.3c-13.4,16.9-31.4,28.6-53.4,34.8l-2.2,0.6c0,0.1,0.1,0.1,0.1,0.1
			c0.2,0.2,0.4,0.5,0.6,0.6c13.3,8.1,25.2,18.4,36.7,28.3c2.9,2.5,6,5.2,9,7.7c1.9,1.6,3.9,3.1,5.8,4.5c0.8,0.6,1.7,1.3,2.5,1.9
			c9.3,7.2,19.9,8.1,32.3,2.8c1.4-0.6,2.7-1.4,4-2.2c0.6-0.4,1.2-0.7,1.8-1.1c0.3-0.2,0.7-0.4,1-0.6c0.7-0.4,1.5-0.9,2.3-1.2
			c1.3-0.6,2.5-0.5,3.4,0c0.8,0.6,1.2,1.6,1.1,2.9c-0.1,1.9-0.6,3.7-1.5,5c-1.3,2.1-3,3.8-4.8,5.1c-10.9,8.1-22.1,12.5-34.2,13.6
			C549.3,378.5,548.1,378.5,546.9,378.5z"/>
		<path class="st0" d="M414.2,304c2.3,0,4.6,0.4,7,1.2c7.4,2.4,14.6,6.2,22.2,11.4c18,12.5,35.3,24.9,51.7,36.7
			c1.5,1.1,3.1,2.2,4.6,3.4c8.1,6,16.5,12.1,25.9,16.3c9.1,4,17,5.6,24.8,4.9c12.1-1.1,23.2-5.5,34-13.5c1.7-1.3,3.3-3,4.7-5
			c0.8-1.2,1.3-3,1.4-4.8c0-1.2-0.3-2-0.9-2.5c-0.7-0.5-1.7-0.5-2.9,0c-0.8,0.3-1.5,0.8-2.2,1.2c-0.3,0.2-0.7,0.4-1,0.6
			c-0.6,0.3-1.2,0.7-1.8,1.1c-1.3,0.8-2.7,1.6-4.1,2.2c-12.5,5.5-23.3,4.5-32.8-2.9c-0.8-0.6-1.7-1.3-2.5-1.9
			c-1.9-1.5-3.9-3-5.8-4.6c-3-2.6-6.1-5.2-9-7.7c-11.5-9.9-23.4-20.1-36.6-28.2c-0.3-0.2-0.5-0.4-0.7-0.7c-0.1-0.1-0.2-0.3-0.3-0.4
			c-0.1-0.1-0.1-0.1,0-0.2c0-0.1,0.1-0.1,0.2-0.2l2.6-0.7c21.9-6.2,39.8-17.9,53.1-34.7c16.2-20.5,26.5-45,31.5-75.1
			c3.7-22.6,3.7-46.2,0-70.1c-3.6-23.3-11-43.1-22.5-60.5c-10.1-15.3-22-27.2-35.4-35.1c-14.1-8.4-30.2-12.9-48.1-13.2
			c-0.8,0-1.6,0-2.5,0c-30.1,0-55,10.9-74,32.6c-12.9,14.7-22.3,32-28.6,52.9c-8.6,28.4-10.9,58.8-6.6,90.4
			c4.1,30.2,15.7,57,34.5,79.7c2.1,2.6,4.4,5.1,6.6,7.5c1,1.1,2,2.2,2.9,3.2c0.1,0.1,0.1,0.3,0,0.4c-0.8,0.8-1.7,1.5-2.6,2.1
			c-1.9,1.5-3.7,3-4.9,4.8c-3,4.8-6.5,4.1-10.4,2.8c-10-3.3-18.6-9.9-26.2-20.2c-20.5-27.8-41.3-56-61.4-83.4l-13.9-18.9
			c-4-5.4-7-9.6-9.7-13.6c-2.6-3.7-2.4-7.5,0.6-10.8c0.3-0.3,0.6-0.7,0.9-1c0.2-0.3,0.5-0.6,0.7-0.9c5.3-6.3,10.6-12.5,15.9-18.8
			c12.7-15,25.9-30.5,38.9-45.8C342,71.4,354.6,57,368.6,44.5c5.3-4.7,11.1-9.5,18.5-11.8c1.2-0.4,2.4-1.1,3.5-2.1
			c1-0.8,1.4-2.1,1.1-3.3c-0.3-1.2-1.2-2.2-2.4-2.6c-0.9-0.3-1.9-0.3-3.3-0.2c-1,0.1-2,0.3-3,0.5c-1.6,0.3-3.3,0.6-4.9,0.6
			c-12.7-0.1-25.5-0.4-38-0.6c-3.5-0.1-7-0.1-10.5-0.2c-0.8,0-1.6-0.1-2.4-0.1c-1.7-0.1-3.5-0.2-5.2,0c-1,0.1-2.4,1.6-2.6,2.7
			c-0.2,1.1,0.5,2.8,1.4,3.7c0.7,0.8,1.9,1.1,3,1.5c0.2,0.1,0.5,0.2,0.7,0.2c0.8,0.3,1.5,0.5,2.3,0.7c0.8,0.2,1.7,0.4,2.5,0.7
			c6.6,2.4,9.5,7.4,8.1,14.4c-1,5.3-3.5,10.6-7.4,15.6c-6.6,8.6-13.6,16.8-18.9,23c-19.2,22.5-38.7,45.2-55.9,65.2
			c-1.2,1.4-2.5,2.6-3.7,3.9c-0.6,0.6-1.2,1.2-1.8,1.8c-0.1,0.1-0.2,0.1-0.2,0.1l-0.8-0.2c-0.1,0-0.2-0.1-0.2-0.2
			c-0.1-0.4-0.1-0.8-0.2-1.3c-0.2-0.9-0.3-1.8-0.3-2.8l0-2.5c0-29.1,0.1-59.1,0.2-88.7c0-3.4,0.5-6.9,0.9-10.2l0.2-1.8
			c0.8-6.7,4.4-11.9,10.9-16.1c0.6-0.3,1.1-0.7,1.7-1c1.2-0.7,2.4-1.5,3.5-2.3c1.6-1.3,2-3.2,1-5.1c-0.9-1.8-2.6-1.7-4.3-1.4
			c-0.3,0.1-0.6,0.1-0.9,0.2c-1.3,0.3-2.7,0.5-4,0.6c-2.7,0.1-5.4,0.2-8.1,0.4c-7.7,0.4-15.7,0.8-23.6,0.7
			c-6.4-0.1-12.9-0.7-19.2-1.3c-1.7-0.2-3.5-0.3-5.2-0.5c-4.1-0.4-5.9,0.4-6.4,2.8c-0.6,2.7,0.8,4.3,4.7,5.4l1.3,0.4
			c1.8,0.5,3.8,1.1,5.7,1.6c8.2,2,13.3,7.3,15.3,15.8c2.1,9,2.3,18.3,2.3,26.4c0.1,64.5,0,127.6,0,175.5v1.6c0,4.5,0,9.1-0.5,13.6
			c-0.7,6.1-1.8,12.3-2.9,18.3l-0.5,2.6c-0.2,1-0.7,2-1.2,2.9c-0.2,0.4-0.5,0.9-0.7,1.3c0,0.1-0.1,0.1-0.1,0.1c-0.1,0-0.1,0-0.2,0
			c-5.1-2.9-7.2-7.4-8.6-11.4c-4.1-11.6-8.1-23-11.6-34.5c-7.7-25.4-15.5-51.2-23-76.2c-3.6-11.8-7.1-23.7-10.7-35.5
			c-11-36.6-22.1-73.2-33.1-109.7c-0.1-0.4-0.2-0.9-0.4-1.3c-0.4-1.5-0.8-3-1.5-4.3c-0.5-0.9-1.4-1.7-2.2-2.5
			c-0.3-0.3-0.6-0.6-1-0.9c-0.3,0.3-0.6,0.6-0.9,0.9c-0.8,0.8-1.7,1.6-2.4,2.5c-0.5,0.7-0.8,1.6-1.1,2.6c-0.1,0.3-0.2,0.5-0.3,0.8
			c-5,14.5-10,28.9-15.1,43.4L95.4,97.8c-5.1,14.6-10.1,29.2-15.2,43.8C67,179.7,53.3,219.1,40,258c-4.4,12.7-8.2,23.1-14.9,32.9
			c-2.2,3.2-5.1,6.7-10.1,7.9c-0.9,0.2-1.8,0.6-2.5,1c-1.9,1-2.7,3.7-1.9,5.8c0.7,1.7,2.4,2.4,4.7,2c0.6-0.1,1.2-0.2,1.8-0.3
			c2.4-0.4,4.8-0.9,7.3-0.9c8.8,0.1,17.8,0.4,26.5,0.7c2.2,0.1,4.3,0.1,6.4,0.2c1.4,0,2.7,0.1,4,0.2c2.4,0.1,4.9,0.3,7.4,0.2
			c1.2,0,2.9-1.2,3.1-2c0.3-1.3-0.4-3-1.2-4.3c-0.4-0.6-1.4-1-2.2-1.3c-0.2-0.1-0.4-0.2-0.6-0.2c-1.3-0.5-2.6-1-3.9-1.5
			c-2.2-0.8-4.6-1.7-6.8-2.7c-4.1-1.9-6.6-5.3-7.5-10.2c-1.2-6.1-0.9-12.3,0.9-18.2c3.3-11.4,7-23.1,11-35
			c2.3-6.9,4.9-13.8,7.4-20.5c0.8-2.1,1.6-4.1,2.3-6.2c1.4-3.7,4.1-5.7,8.1-6.1c0.6-0.1,1.1-0.1,1.7-0.2c1.2-0.1,2.5-0.3,3.8-0.3
			l6.8,0c18.7,0,37.9-0.1,56.9,0c7.5,0,8.3,1,10.8,7.7l0.2,0.5c0.2,0.5,0.4,1.1,0.6,1.7c1.5,5.1,3,10.2,4.5,15.3
			c3.8,13,7.7,26.5,11.2,39.8c1.6,6,2.6,12.9,3.2,21.7c0.4,6.8-2.3,10.5-9.3,12.6c-0.4,0.1-0.9,0.3-1.3,0.4
			c-0.7,0.2-1.4,0.4-2.1,0.6c-3.3,1-4.4,2.9-3.7,5.9c0.5,2.2,2.3,2.9,5.8,2.5l1.8-0.2c5.1-0.6,10.4-1.3,15.6-1.5
			c23-0.7,47.2-0.1,78.7,1.9c2.7,0.2,5.4,0.4,8,0.7c1.4,0.1,2.8,0.3,4.2,0.4c1.9,0.2,2.9-0.8,3.1-2.9c0.2-2.6-1.1-4.1-4.8-5.2
			l-0.1,0c-5.1-1.6-10.4-3.2-15.4-5.4c-4.7-2.1-7.9-6-8.9-11.1c-0.1-0.7-0.3-1.4-0.4-2.1c-0.9-4.6-1.9-9.3-1.9-14
			c-0.2-21.1-0.3-42.5-0.3-63.3c0-7.1,0-14.2,0-21.2c0-0.1,0-0.2,0-0.3c0-0.4,0-0.7,0.1-1.1c0.1-0.3,0.3-0.6,0.4-1
			c0.4-1,0.8-2.1,1.6-2.3c1.1-0.3,2.4,0.4,3.5,0.9l0.4,0.2c0.5,0.3,0.9,0.8,1.3,1.3c0.1,0.1,0.2,0.3,0.3,0.4
			c6.9,9.2,13.7,18.4,20.6,27.7c8,10.7,16,21.5,24,32.2c4.3,5.8,8.7,11.7,13.1,17.5c10.2,13.7,20.8,27.8,31,41.8
			c3.8,5.1,8,7.1,14.2,6.5c5.9-0.5,12-0.6,17.8-0.7c2.1,0,4.3,0,6.4-0.1c0.9,0,1.9,0.1,2.9,0.2c0.5,0.1,1,0.1,1.5,0.2
			c0.1,0,0.1,0.1,0.2,0.1c0,0.1,0.1,0.2,0,0.2l-0.5,1.2c-0.3,0.7-0.6,1.4-0.9,2c-4.3,9.8-6.5,19.2-6.8,28.9c0,1.3,0,2.9,0.6,4
			c0.5,0.9,1.9,1.8,2.8,1.9c0.8,0,2.1-0.9,2.5-1.8c0.7-1.6,1.2-3.5,1.5-5.9c1.7-11.6,6-20.7,13.3-27.8
			C404.3,306,409.1,304,414.2,304z"/>
		<path class="st0" d="M693.8,308.2c-2.1,0-3.5-1-4.1-3c-0.8-2.8,0.2-5,2.7-6.1c1.8-0.7,3.6-1.3,5.5-1.8c4.5-1,7-3.9,7.9-9.1
			c1.2-6.3-0.1-12.5-1.3-17.2C700,254,695.2,236.8,691,222c-1.1-4.1-2.5-8.2-3.8-12.2c-0.6-2-1.3-3.9-1.9-5.9
			c-0.9-2.8-2.7-4.2-5.7-4.3c-0.9-0.1-1.8-0.1-2.6-0.2c-1.3-0.1-2.6-0.2-3.8-0.2c-7.2,0-14.6,0-21.8,0h-7.2c-0.1,0-0.1,0-0.2,0
			c-2.7,0-5.4,0-8.1,0c-6.9,0-14,0-21,0.1c-2.7,0-5.4,0.4-8.1,0.7c-0.5,0.1-1,0.1-1.5,0.2c-2.4,0.3-4.2,1.6-5.3,4
			c-0.2,0.5-0.5,0.9-0.7,1.4c-0.5,1-1,2-1.4,3.1c-1.4,4-2.8,8-4.1,12c-4.7,13.7-9.6,27.8-14.1,41.8c-2.7,8.3-3.3,15.8-2,22.8
			c0.9,4.7,3.5,8.1,7.5,10c2.2,1,4.5,1.9,6.7,2.7c1.2,0.4,2.3,0.9,3.5,1.3c0.2,0.1,0.5,0.2,0.8,0.3c0.9,0.3,1.8,0.6,2.2,1.2
			c1.3,2,1.8,3.6,1.6,4.8c-0.2,1.1-2.4,2.5-3.7,2.6c-2.5,0.1-4.9,0-7.4-0.2c-1.3-0.1-2.6-0.2-3.9-0.2l-6.2-0.2
			c-8.9-0.3-18.1-0.6-27.2-0.7c-2.3,0-4.7,0.4-7,0.9c-0.5,0.1-1,0.2-1.5,0.3c-2.8,0.5-4.8-0.3-5.5-2.2c-0.9-2.5,0.1-5.3,2.5-6.5
			c1.3-0.6,2.3-1.1,3.3-1.3c3.9-1,6.3-3.9,8-6.2c6.9-9.8,11.2-20.6,14.4-30c13.1-38.2,26.5-76.9,39.5-114.4
			c4.5-12.9,9-25.8,13.4-38.7l2.3-6.6c9-26,18.3-52.9,27.5-79.3c0.7-2.1,1.5-3.7,2.3-5c0.8-1.3,1.9-2,2.9-1.9c1,0.1,1.9,0.8,2.6,2
			c1.4,2.7,2.3,5.6,3.1,8.4c6.6,21.8,13.1,43.7,19.7,65.5c4.8,16,9.6,32.1,14.5,48.1l4.3,14.1c9.2,30.5,18.7,62,28.1,92.9
			c1.4,4.7,3,9.4,4.6,14c1.8,5.3,3.6,10.9,5.2,16.4c3.3,11.1,10.8,17.8,23.2,20.3c1.2,0.2,2.7,0.6,4.1,1.2c2.4,1,3.5,3.1,3,5.5
			c-0.6,2.6-2.6,2.9-4.7,2.8c-4.2-0.1-8.3-0.2-12.5-0.3c-12-0.3-24.3-0.5-36.5-0.7c-3.3,0-6.6,0.3-9.8,0.6c-1,0.1-1.9,0.2-2.9,0.3
			c-0.8,0.1-1.7,0.3-2.5,0.5c-0.7,0.2-1.4,0.3-2.1,0.4C694.5,308.2,694.1,308.2,693.8,308.2z"/>
		<path class="st0" d="M659.8,198.8c4.5,0,8.9,0,13.4,0c1.3,0,2.6,0.1,3.9,0.2c0.9,0.1,1.7,0.1,2.6,0.2c3.1,0.1,5.1,1.7,6.1,4.7
			c0.6,2,1.3,3.9,1.9,5.9c1.3,4,2.7,8.1,3.8,12.2c4.1,14.8,9,32,13.4,49.1c1.2,4.8,2.5,11,1.3,17.4c-1,5.4-3.6,8.4-8.3,9.5
			c-1.8,0.4-3.7,1-5.4,1.7c-2.3,1-3.2,2.9-2.4,5.5c0.6,2.1,2.1,2.9,4.6,2.6c0.7-0.1,1.4-0.3,2.1-0.4c0.8-0.2,1.7-0.4,2.6-0.5
			c1-0.1,1.9-0.2,2.9-0.3c3.2-0.3,6.6-0.7,9.8-0.6c12.2,0.1,24.5,0.4,36.5,0.7c4.2,0.1,8.3,0.2,12.5,0.3c2.2,0,3.7-0.4,4.2-2.5
			c0.5-2.2-0.5-4-2.7-4.9c-1.4-0.6-2.9-0.9-4-1.2c-12.6-2.6-20.3-9.4-23.6-20.7c-1.6-5.5-3.5-11-5.2-16.3c-1.5-4.6-3.1-9.3-4.5-14
			c-9.4-31-18.9-62.5-28.1-93l-4.3-14.1c-4.8-16-9.6-32.1-14.5-48.1c-6.6-21.8-13.1-43.7-19.7-65.5c-0.8-2.8-1.8-5.7-3.1-8.3
			c-0.6-1.1-1.3-1.7-2.2-1.8c-0.9,0-1.7,0.5-2.5,1.7c-0.8,1.3-1.5,2.9-2.3,4.9c-9.2,26.4-18.5,53.3-27.5,79.3l-2.3,6.6
			c-4.5,12.9-8.9,25.8-13.4,38.7c-13,37.5-26.4,76.2-39.6,114.4c-3.2,9.4-7.5,20.3-14.4,30.1c-1.7,2.4-4.2,5.3-8.2,6.4
			c-0.9,0.2-1.9,0.6-3.2,1.3c-2.1,1.1-3,3.6-2.2,5.9c0.6,1.7,2.4,2.4,5,1.9c0.5-0.1,1-0.2,1.5-0.3c2.3-0.4,4.7-0.9,7.1-0.9
			c9.1,0.1,18.3,0.4,27.2,0.7l6.2,0.2c1.3,0,2.6,0.1,3.9,0.2c2.4,0.1,4.9,0.3,7.3,0.2c1.2-0.1,3.1-1.3,3.3-2.2
			c0.2-1.1-0.3-2.5-1.5-4.4c-0.3-0.5-1.1-0.7-1.9-1c-0.3-0.1-0.6-0.2-0.8-0.3c-1.2-0.5-2.3-0.9-3.5-1.3c-2.2-0.8-4.5-1.7-6.7-2.7
			c-4.2-1.9-6.8-5.4-7.8-10.3c-1.4-7.1-0.8-14.6,2-23c4.5-14,9.4-28.1,14.1-41.8c1.4-4,2.8-8,4.1-12c0.4-1.1,0.9-2.1,1.4-3.1
			c0.2-0.5,0.5-0.9,0.7-1.4c1.2-2.5,3.1-4,5.7-4.3c0.5-0.1,1-0.1,1.5-0.2c2.7-0.3,5.4-0.7,8.2-0.7c7-0.1,14.1-0.1,21-0.1
			c2.7,0,5.4,0,8.1,0c0.1,0,0.1,0,0.2,0h7.2C654.2,198.8,657,198.8,659.8,198.8z"/>
		<line class="st0" x1="644.2" y1="199" x2="644.2" y2="199"/>
		<path class="st0" d="M643.2,76.3c0.2-0.3,0.5-0.6,0.7-0.9c0.3-0.4,0.6-0.8,0.9-1.1"/>
		<path class="st0" d="M646.2,76C646.1,76,646.1,76,646.2,76"/>
		<path class="st0" d="M647.4,77.6c-0.1-0.1-0.1-0.2-0.2-0.3"/>
		<path class="st0" d="M479.5,300.4c-15.4,0-30-5.2-43.4-15.6c-18.2-14.1-31.7-32.9-41.1-57.5c-6.4-16.6-10.2-34.2-11.6-53.8
			c-0.4-5.1-0.7-10.4-0.9-15.4c-0.1-2.4-0.2-4.7-0.4-7c0,0,0,0,0,0c0.2-24.4,3.3-44,9.8-61.7c4.9-13.5,11.6-24.9,20.3-34.8
			C435.4,28,469.2,28.7,492.3,41c13,7,24.1,17.6,34.7,33.3c14.3,21.2,23.4,45,27.7,72.8c3.1,19.8,3.7,39.5,2,58.6
			c-2.4,26.5-9.7,47.8-22.2,65.3c-10.9,15.3-23.9,24.3-39.5,27.7C489.7,299.9,484.5,300.4,479.5,300.4z"/>
		<path class="st0" d="M382.5,151.1c0.1,2.3,0.3,4.7,0.4,7c0.3,5.1,0.6,10.3,0.9,15.4c1.4,19.5,5.2,37.1,11.6,53.7
			c9.4,24.5,22.8,43.2,41,57.3c17.8,13.7,37.4,18.4,58.6,13.8c15.5-3.4,28.3-12.3,39.2-27.5c12.5-17.4,19.7-38.7,22.1-65
			c1.8-19.1,1.1-38.8-2-58.5c-4.3-27.7-13.3-51.4-27.6-72.6c-10.6-15.7-21.6-26.2-34.5-33.2c-23-12.3-56.5-12.9-79.7,13.4
			c-8.7,9.9-15.4,21.2-20.2,34.7C385.7,107.1,382.6,126.7,382.5,151.1z"/>
		<path class="st0" d="M133.4,179.3c-2.2,0-4.4,0-6.6,0c-2.3,0-4.5,0-6.8,0h-4.2c-0.1,0-0.1,0-0.2-0.1h-5.5c-6.7,0-13.4,0-20.1,0
			c-0.9,0-1.6,0-2.3-0.1c-2.5-0.4-4.1-1.2-5-2.5c-0.8-1.3-0.9-3-0.2-5.3c1.8-5.7,3.8-11.4,5.7-16.9l1.1-3.2
			c8.1-23.4,16.8-48.3,25.4-72.9c0.4-1,1-1.9,1.7-2.8c0.3-0.4,0.6-0.8,0.9-1.2c0-0.1,0.1-0.1,0.2-0.1c0.1,0,0.2,0,0.2,0.1
			c0.3,0.4,0.7,0.8,1,1.2c0.8,0.9,1.6,1.8,2,2.9c3.6,11.3,7.1,22.8,10.5,33.9l2.7,8.9c4.2,13.9,8.6,28.2,12.9,42.3
			c0.7,2.4,1.2,4.8,1.7,7.2l0.2,1c0.5,2.6,0.3,4.5-0.7,5.7c-1,1.3-2.8,1.9-5.4,1.9C139.7,179.3,136.5,179.3,133.4,179.3z"/>
		<line class="st0" x1="116.1" y1="179" x2="116" y2="179"/>
		<path class="st0" d="M120.1,178.8c2.2,0,4.5,0,6.7,0c5.2,0,10.7,0,16,0c2.4,0,4.1-0.6,5-1.8c0.9-1.2,1.1-2.9,0.6-5.3l-0.2-1
			c-0.5-2.4-1-4.8-1.7-7.2c-4.3-14.1-8.6-28.4-12.9-42.3l-2.7-8.8c-3.4-11.1-6.9-22.6-10.5-33.9c-0.3-1-1.1-1.8-1.9-2.7
			c-0.3-0.3-0.6-0.7-0.9-1c-0.2,0.3-0.5,0.6-0.7,1c-0.6,0.9-1.3,1.7-1.6,2.7c-8.6,24.6-17.3,49.5-25.4,72.9l-1.1,3.2
			c-1.9,5.5-3.9,11.2-5.7,16.9c-0.7,2.1-0.6,3.7,0.1,4.9c0.8,1.2,2.3,2,4.6,2.3c0.6,0.1,1.3,0.1,2.2,0.1c6.7,0,13.4,0,20.1,0h5.6
			c0.1,0,0.1,0,0.2,0.1H120.1C120.1,178.8,120.1,178.8,120.1,178.8z"/>
		<path class="st0" d="M643.4,179c-8.2,0-16.5,0-24.8,0c-0.9,0-1.8,0-2.7-0.1c-5.3-0.4-7.2-3-5.5-8.1c2.6-8.1,5.5-16.2,8.3-24.3
			c7.9-22.8,15.9-45.6,23.9-68.4c0.5-1.3,1.6-2.5,2.5-3.7c1,1.2,2.4,2.3,2.9,3.8c3.6,11.2,7,22.4,10.4,33.6
			c5.3,17.3,10.6,34.6,15.8,51.9c0.9,3.1,1.6,6.3,2.2,9.5c0.5,2.7-0.7,4.6-3.3,5.4c-1.2,0.4-2.4,0.5-3.7,0.5
			C660.7,179,652,179,643.4,179C643.4,179,643.4,179,643.4,179z"/>
		<path class="st0" d="M644.8,74.3c0-0.1,0.1-0.1,0.2-0.1c0.1,0,0.2,0,0.2,0.1c0.3,0.4,0.7,0.8,1,1.1c0.8,0.8,1.6,1.7,1.9,2.7
			c2.9,9.1,5.8,18.4,8.5,27.4l4.8,15.6c4.3,13.9,8.7,28.3,13,42.5c1,3.2,1.6,6.4,2.2,9.5c0.5,2.8-0.7,4.8-3.5,5.6
			c-1.1,0.3-2.4,0.5-3.8,0.5c-4.5,0-9,0-13.4,0c-2.1,0-4.2,0-6.2,0h-6.3c0,0-0.1,0-0.1,0l-5.6,0c-6.3,0-12.7,0-19,0
			c-0.8,0-1.8,0-2.8-0.1c-2.8-0.2-4.6-1.1-5.6-2.5c-0.9-1.4-1-3.4-0.2-5.9c2.1-6.6,4.4-13.2,6.7-19.6c0.5-1.6,1.1-3.1,1.6-4.7
			c8.8-25.4,16.2-46.5,23.9-68.4c0.2-0.6,0.5-1.2,0.9-1.7c0.2-0.3,0.5-0.6,0.7-0.9C644.2,75,644.5,74.6,644.8,74.3z"/>
		<path class="st0" d="M646.1,76c-0.1-0.1-0.2-0.2-0.3-0.3c-0.3-0.3-0.6-0.6-0.8-0.9c-0.2,0.3-0.5,0.6-0.7,0.9
			c-0.6,0.8-1.3,1.6-1.6,2.5c-7.7,21.9-15.1,43.1-23.9,68.4c-0.6,1.6-1.1,3.1-1.7,4.7c-2.2,6.4-4.5,13-6.7,19.5
			c-0.8,2.4-0.8,4.2,0.1,5.5c0.9,1.3,2.6,2,5.2,2.3c0.9,0.1,1.9,0.1,2.7,0.1c6.3,0,12.7,0,19,0l5.7,0c0,0,0.1,0,0.1,0h6.2
			c6.5,0,13.1,0,19.7,0c1.3,0,2.5-0.2,3.6-0.5c2.5-0.8,3.6-2.5,3.1-5.1c-0.6-3-1.2-6.3-2.2-9.4c-4.3-14.2-8.7-28.6-13-42.5
			l-4.8-15.6c-2.7-9-5.6-18.3-8.5-27.4c-0.1-0.2-0.2-0.5-0.3-0.7c-0.1-0.1-0.1-0.2-0.2-0.3C646.9,76.8,646.5,76.4,646.1,76
			C646.2,76,646.1,76,646.1,76z"/>
	</g>
</g>
</svg>
